<svg width="700" height="700" viewBox="0 0 700 700" fill="none" xmlns="http://www.w3.org/2000/svg">
<g clip-path="url(#clip0_81_367)">
<g filter="url(#filter0_f_81_367)">
<path d="M700 0H0V700H700V0Z" fill="url(#paint0_linear_81_367)"/>
</g>
<g clip-path="url(#clip1_81_367)">
<path d="M16.8888 -5.55554H-27.5557V38.8889H16.8888V-5.55554Z" stroke="black" stroke-opacity="0.21" stroke-width="0.5"/>
<path d="M61.3334 -5.55554H16.8889V38.8889H61.3334V-5.55554Z" stroke="black" stroke-opacity="0.21" stroke-width="0.5"/>
<path d="M105.778 -5.55554H61.3333V38.8889H105.778V-5.55554Z" stroke="black" stroke-opacity="0.21" stroke-width="0.5"/>
<path d="M150.222 -5.55554H105.778V38.8889H150.222V-5.55554Z" stroke="black" stroke-opacity="0.21" stroke-width="0.5"/>
<path d="M194.667 -5.55554H150.222V38.8889H194.667V-5.55554Z" stroke="black" stroke-opacity="0.21" stroke-width="0.5"/>
<path d="M239.111 -5.55554H194.667V38.8889H239.111V-5.55554Z" stroke="black" stroke-opacity="0.21" stroke-width="0.5"/>
<path d="M283.556 -5.55554H239.111V38.8889H283.556V-5.55554Z" stroke="black" stroke-opacity="0.21" stroke-width="0.5"/>
<path d="M328 -5.55554H283.556V38.8889H328V-5.55554Z" stroke="black" stroke-opacity="0.21" stroke-width="0.5"/>
<path d="M372.444 -5.55554H328V38.8889H372.444V-5.55554Z" stroke="black" stroke-opacity="0.21" stroke-width="0.5"/>
<path d="M416.889 -5.55554H372.444V38.8889H416.889V-5.55554Z" stroke="black" stroke-opacity="0.21" stroke-width="0.5"/>
<path d="M461.333 -5.55554H416.889V38.8889H461.333V-5.55554Z" stroke="black" stroke-opacity="0.21" stroke-width="0.5"/>
<path d="M505.778 -5.55554H461.333V38.8889H505.778V-5.55554Z" stroke="black" stroke-opacity="0.21" stroke-width="0.5"/>
<path d="M550.222 -5.55554H505.778V38.8889H550.222V-5.55554Z" stroke="black" stroke-opacity="0.21" stroke-width="0.5"/>
<path d="M594.667 -5.55554H550.222V38.8889H594.667V-5.55554Z" stroke="black" stroke-opacity="0.21" stroke-width="0.5"/>
<path d="M639.111 -5.55554H594.667V38.8889H639.111V-5.55554Z" stroke="black" stroke-opacity="0.21" stroke-width="0.5"/>
<path d="M683.556 -5.55554H639.111V38.8889H683.556V-5.55554Z" stroke="black" stroke-opacity="0.21" stroke-width="0.5"/>
<path d="M728 -5.55554H683.556V38.8889H728V-5.55554Z" stroke="black" stroke-opacity="0.21" stroke-width="0.5"/>
<path d="M16.8888 38.8889H-27.5557V83.3334H16.8888V38.8889Z" stroke="black" stroke-opacity="0.21" stroke-width="0.5"/>
<path d="M61.3334 38.8889H16.8889V83.3334H61.3334V38.8889Z" stroke="black" stroke-opacity="0.21" stroke-width="0.5"/>
<path d="M105.778 38.8889H61.3333V83.3334H105.778V38.8889Z" stroke="black" stroke-opacity="0.21" stroke-width="0.5"/>
<path d="M150.222 38.8889H105.778V83.3334H150.222V38.8889Z" stroke="black" stroke-opacity="0.21" stroke-width="0.5"/>
<path d="M194.667 38.8889H150.222V83.3334H194.667V38.8889Z" stroke="black" stroke-opacity="0.21" stroke-width="0.5"/>
<path d="M239.111 38.8889H194.667V83.3334H239.111V38.8889Z" stroke="black" stroke-opacity="0.21" stroke-width="0.5"/>
<path d="M283.556 38.8889H239.111V83.3334H283.556V38.8889Z" stroke="black" stroke-opacity="0.21" stroke-width="0.5"/>
<path d="M328 38.8889H283.556V83.3334H328V38.8889Z" stroke="black" stroke-opacity="0.21" stroke-width="0.5"/>
<path d="M372.444 38.8889H328V83.3334H372.444V38.8889Z" stroke="black" stroke-opacity="0.21" stroke-width="0.5"/>
<path d="M416.889 38.8889H372.444V83.3334H416.889V38.8889Z" stroke="black" stroke-opacity="0.21" stroke-width="0.5"/>
<path d="M461.333 38.8889H416.889V83.3334H461.333V38.8889Z" stroke="black" stroke-opacity="0.21" stroke-width="0.5"/>
<path d="M505.778 38.8889H461.333V83.3334H505.778V38.8889Z" stroke="black" stroke-opacity="0.21" stroke-width="0.5"/>
<path d="M550.222 38.8889H505.778V83.3334H550.222V38.8889Z" stroke="black" stroke-opacity="0.21" stroke-width="0.5"/>
<path d="M594.667 38.8889H550.222V83.3334H594.667V38.8889Z" stroke="black" stroke-opacity="0.21" stroke-width="0.5"/>
<path d="M639.111 38.8889H594.667V83.3334H639.111V38.8889Z" stroke="black" stroke-opacity="0.21" stroke-width="0.5"/>
<path d="M683.556 38.8889H639.111V83.3334H683.556V38.8889Z" stroke="black" stroke-opacity="0.21" stroke-width="0.5"/>
<path d="M728 38.8889H683.556V83.3334H728V38.8889Z" stroke="black" stroke-opacity="0.21" stroke-width="0.5"/>
<path d="M16.8888 83.3333H-27.5557V127.778H16.8888V83.3333Z" stroke="black" stroke-opacity="0.21" stroke-width="0.5"/>
<path d="M61.3334 83.3333H16.8889V127.778H61.3334V83.3333Z" stroke="black" stroke-opacity="0.21" stroke-width="0.5"/>
<path d="M105.778 83.3333H61.3333V127.778H105.778V83.3333Z" stroke="black" stroke-opacity="0.21" stroke-width="0.5"/>
<path d="M150.222 83.3333H105.778V127.778H150.222V83.3333Z" stroke="black" stroke-opacity="0.21" stroke-width="0.5"/>
<path d="M194.667 83.3333H150.222V127.778H194.667V83.3333Z" stroke="black" stroke-opacity="0.21" stroke-width="0.5"/>
<path d="M239.111 83.3333H194.667V127.778H239.111V83.3333Z" stroke="black" stroke-opacity="0.21" stroke-width="0.5"/>
<path d="M283.556 83.3333H239.111V127.778H283.556V83.3333Z" stroke="black" stroke-opacity="0.21" stroke-width="0.5"/>
<path d="M328 83.3333H283.556V127.778H328V83.3333Z" stroke="black" stroke-opacity="0.21" stroke-width="0.5"/>
<path d="M372.444 83.3333H328V127.778H372.444V83.3333Z" stroke="black" stroke-opacity="0.21" stroke-width="0.5"/>
<path d="M416.889 83.3333H372.444V127.778H416.889V83.3333Z" stroke="black" stroke-opacity="0.21" stroke-width="0.5"/>
<path d="M461.333 83.3333H416.889V127.778H461.333V83.3333Z" stroke="black" stroke-opacity="0.21" stroke-width="0.5"/>
<path d="M505.778 83.3333H461.333V127.778H505.778V83.3333Z" stroke="black" stroke-opacity="0.21" stroke-width="0.5"/>
<path d="M550.222 83.3333H505.778V127.778H550.222V83.3333Z" stroke="black" stroke-opacity="0.21" stroke-width="0.5"/>
<path d="M594.667 83.3333H550.222V127.778H594.667V83.3333Z" stroke="black" stroke-opacity="0.21" stroke-width="0.5"/>
<path d="M639.111 83.3333H594.667V127.778H639.111V83.3333Z" stroke="black" stroke-opacity="0.21" stroke-width="0.5"/>
<path d="M683.556 83.3333H639.111V127.778H683.556V83.3333Z" stroke="black" stroke-opacity="0.21" stroke-width="0.5"/>
<path d="M728 83.3333H683.556V127.778H728V83.3333Z" stroke="black" stroke-opacity="0.21" stroke-width="0.5"/>
<path d="M16.8888 127.778H-27.5557V172.222H16.8888V127.778Z" stroke="black" stroke-opacity="0.21" stroke-width="0.5"/>
<path d="M61.3334 127.778H16.8889V172.222H61.3334V127.778Z" stroke="black" stroke-opacity="0.21" stroke-width="0.5"/>
<path d="M105.778 127.778H61.3333V172.222H105.778V127.778Z" stroke="black" stroke-opacity="0.21" stroke-width="0.5"/>
<path d="M150.222 127.778H105.778V172.222H150.222V127.778Z" stroke="black" stroke-opacity="0.21" stroke-width="0.5"/>
<path d="M194.667 127.778H150.222V172.222H194.667V127.778Z" stroke="black" stroke-opacity="0.21" stroke-width="0.5"/>
<path d="M239.111 127.778H194.667V172.222H239.111V127.778Z" stroke="black" stroke-opacity="0.21" stroke-width="0.5"/>
<path d="M283.556 127.778H239.111V172.222H283.556V127.778Z" stroke="black" stroke-opacity="0.21" stroke-width="0.5"/>
<path d="M328 127.778H283.556V172.222H328V127.778Z" stroke="black" stroke-opacity="0.21" stroke-width="0.5"/>
<path d="M372.444 127.778H328V172.222H372.444V127.778Z" stroke="black" stroke-opacity="0.21" stroke-width="0.5"/>
<path d="M416.889 127.778H372.444V172.222H416.889V127.778Z" stroke="black" stroke-opacity="0.21" stroke-width="0.5"/>
<path d="M461.333 127.778H416.889V172.222H461.333V127.778Z" stroke="black" stroke-opacity="0.21" stroke-width="0.5"/>
<path d="M505.778 127.778H461.333V172.222H505.778V127.778Z" stroke="black" stroke-opacity="0.21" stroke-width="0.5"/>
<path d="M550.222 127.778H505.778V172.222H550.222V127.778Z" stroke="black" stroke-opacity="0.21" stroke-width="0.5"/>
<path d="M594.667 127.778H550.222V172.222H594.667V127.778Z" stroke="black" stroke-opacity="0.21" stroke-width="0.5"/>
<path d="M639.111 127.778H594.667V172.222H639.111V127.778Z" stroke="black" stroke-opacity="0.21" stroke-width="0.5"/>
<path d="M683.556 127.778H639.111V172.222H683.556V127.778Z" stroke="black" stroke-opacity="0.21" stroke-width="0.5"/>
<path d="M728 127.778H683.556V172.222H728V127.778Z" stroke="black" stroke-opacity="0.21" stroke-width="0.5"/>
<path d="M16.8888 172.222H-27.5557V216.667H16.8888V172.222Z" stroke="black" stroke-opacity="0.21" stroke-width="0.5"/>
<path d="M61.3334 172.222H16.8889V216.667H61.3334V172.222Z" stroke="black" stroke-opacity="0.21" stroke-width="0.5"/>
<path d="M105.778 172.222H61.3333V216.667H105.778V172.222Z" stroke="black" stroke-opacity="0.21" stroke-width="0.5"/>
<path d="M150.222 172.222H105.778V216.667H150.222V172.222Z" stroke="black" stroke-opacity="0.21" stroke-width="0.5"/>
<path d="M194.667 172.222H150.222V216.667H194.667V172.222Z" stroke="black" stroke-opacity="0.21" stroke-width="0.5"/>
<path d="M239.111 172.222H194.667V216.667H239.111V172.222Z" stroke="black" stroke-opacity="0.21" stroke-width="0.5"/>
<path d="M283.556 172.222H239.111V216.667H283.556V172.222Z" stroke="black" stroke-opacity="0.21" stroke-width="0.5"/>
<path d="M328 172.222H283.556V216.667H328V172.222Z" stroke="black" stroke-opacity="0.21" stroke-width="0.5"/>
<path d="M372.444 172.222H328V216.667H372.444V172.222Z" stroke="black" stroke-opacity="0.21" stroke-width="0.5"/>
<path d="M416.889 172.222H372.444V216.667H416.889V172.222Z" stroke="black" stroke-opacity="0.21" stroke-width="0.5"/>
<path d="M461.333 172.222H416.889V216.667H461.333V172.222Z" stroke="black" stroke-opacity="0.21" stroke-width="0.5"/>
<path d="M505.778 172.222H461.333V216.667H505.778V172.222Z" stroke="black" stroke-opacity="0.21" stroke-width="0.5"/>
<path d="M550.222 172.222H505.778V216.667H550.222V172.222Z" stroke="black" stroke-opacity="0.21" stroke-width="0.5"/>
<path d="M594.667 172.222H550.222V216.667H594.667V172.222Z" stroke="black" stroke-opacity="0.21" stroke-width="0.5"/>
<path d="M639.111 172.222H594.667V216.667H639.111V172.222Z" stroke="black" stroke-opacity="0.21" stroke-width="0.5"/>
<path d="M683.556 172.222H639.111V216.667H683.556V172.222Z" stroke="black" stroke-opacity="0.21" stroke-width="0.5"/>
<path d="M728 172.222H683.556V216.667H728V172.222Z" stroke="black" stroke-opacity="0.21" stroke-width="0.5"/>
<path d="M16.8888 216.667H-27.5557V261.111H16.8888V216.667Z" stroke="black" stroke-opacity="0.21" stroke-width="0.5"/>
<path d="M61.3334 216.667H16.8889V261.111H61.3334V216.667Z" stroke="black" stroke-opacity="0.21" stroke-width="0.5"/>
<path d="M105.778 216.667H61.3333V261.111H105.778V216.667Z" stroke="black" stroke-opacity="0.21" stroke-width="0.5"/>
<path d="M150.222 216.667H105.778V261.111H150.222V216.667Z" stroke="black" stroke-opacity="0.21" stroke-width="0.5"/>
<path d="M194.667 216.667H150.222V261.111H194.667V216.667Z" stroke="black" stroke-opacity="0.21" stroke-width="0.5"/>
<path d="M239.111 216.667H194.667V261.111H239.111V216.667Z" stroke="black" stroke-opacity="0.21" stroke-width="0.5"/>
<path d="M283.556 216.667H239.111V261.111H283.556V216.667Z" stroke="black" stroke-opacity="0.21" stroke-width="0.5"/>
<path d="M328 216.667H283.556V261.111H328V216.667Z" stroke="black" stroke-opacity="0.21" stroke-width="0.5"/>
<path d="M372.444 216.667H328V261.111H372.444V216.667Z" stroke="black" stroke-opacity="0.21" stroke-width="0.5"/>
<path d="M416.889 216.667H372.444V261.111H416.889V216.667Z" stroke="black" stroke-opacity="0.21" stroke-width="0.5"/>
<path d="M461.333 216.667H416.889V261.111H461.333V216.667Z" stroke="black" stroke-opacity="0.21" stroke-width="0.5"/>
<path d="M505.778 216.667H461.333V261.111H505.778V216.667Z" stroke="black" stroke-opacity="0.21" stroke-width="0.5"/>
<path d="M550.222 216.667H505.778V261.111H550.222V216.667Z" stroke="black" stroke-opacity="0.21" stroke-width="0.5"/>
<path d="M594.667 216.667H550.222V261.111H594.667V216.667Z" stroke="black" stroke-opacity="0.21" stroke-width="0.5"/>
<path d="M639.111 216.667H594.667V261.111H639.111V216.667Z" stroke="black" stroke-opacity="0.21" stroke-width="0.5"/>
<path d="M683.556 216.667H639.111V261.111H683.556V216.667Z" stroke="black" stroke-opacity="0.21" stroke-width="0.5"/>
<path d="M728 216.667H683.556V261.111H728V216.667Z" stroke="black" stroke-opacity="0.21" stroke-width="0.5"/>
<path d="M16.8888 261.111H-27.5557V305.556H16.8888V261.111Z" stroke="black" stroke-opacity="0.21" stroke-width="0.5"/>
<path d="M61.3334 261.111H16.8889V305.556H61.3334V261.111Z" stroke="black" stroke-opacity="0.21" stroke-width="0.5"/>
<path d="M105.778 261.111H61.3333V305.556H105.778V261.111Z" stroke="black" stroke-opacity="0.21" stroke-width="0.5"/>
<path d="M150.222 261.111H105.778V305.556H150.222V261.111Z" stroke="black" stroke-opacity="0.21" stroke-width="0.5"/>
<path d="M194.667 261.111H150.222V305.556H194.667V261.111Z" stroke="black" stroke-opacity="0.21" stroke-width="0.5"/>
<path d="M239.111 261.111H194.667V305.556H239.111V261.111Z" stroke="black" stroke-opacity="0.21" stroke-width="0.5"/>
<path d="M283.556 261.111H239.111V305.556H283.556V261.111Z" stroke="black" stroke-opacity="0.21" stroke-width="0.5"/>
<path d="M328 261.111H283.556V305.556H328V261.111Z" stroke="black" stroke-opacity="0.21" stroke-width="0.5"/>
<path d="M372.444 261.111H328V305.556H372.444V261.111Z" stroke="black" stroke-opacity="0.21" stroke-width="0.5"/>
<path d="M416.889 261.111H372.444V305.556H416.889V261.111Z" stroke="black" stroke-opacity="0.21" stroke-width="0.5"/>
<path d="M461.333 261.111H416.889V305.556H461.333V261.111Z" stroke="black" stroke-opacity="0.21" stroke-width="0.5"/>
<path d="M505.778 261.111H461.333V305.556H505.778V261.111Z" stroke="black" stroke-opacity="0.21" stroke-width="0.5"/>
<path d="M550.222 261.111H505.778V305.556H550.222V261.111Z" stroke="black" stroke-opacity="0.21" stroke-width="0.5"/>
<path d="M594.667 261.111H550.222V305.556H594.667V261.111Z" stroke="black" stroke-opacity="0.21" stroke-width="0.5"/>
<path d="M639.111 261.111H594.667V305.556H639.111V261.111Z" stroke="black" stroke-opacity="0.21" stroke-width="0.5"/>
<path d="M683.556 261.111H639.111V305.556H683.556V261.111Z" stroke="black" stroke-opacity="0.21" stroke-width="0.5"/>
<path d="M728 261.111H683.556V305.556H728V261.111Z" stroke="black" stroke-opacity="0.21" stroke-width="0.5"/>
<path d="M16.8888 305.556H-27.5557V350H16.8888V305.556Z" stroke="black" stroke-opacity="0.21" stroke-width="0.5"/>
<path d="M61.3334 305.556H16.8889V350H61.3334V305.556Z" stroke="black" stroke-opacity="0.21" stroke-width="0.5"/>
<path d="M105.778 305.556H61.3333V350H105.778V305.556Z" stroke="black" stroke-opacity="0.21" stroke-width="0.5"/>
<path d="M150.222 305.556H105.778V350H150.222V305.556Z" stroke="black" stroke-opacity="0.21" stroke-width="0.5"/>
<path d="M194.667 305.556H150.222V350H194.667V305.556Z" stroke="black" stroke-opacity="0.21" stroke-width="0.5"/>
<path d="M239.111 305.556H194.667V350H239.111V305.556Z" stroke="black" stroke-opacity="0.21" stroke-width="0.5"/>
<path d="M283.556 305.556H239.111V350H283.556V305.556Z" stroke="black" stroke-opacity="0.21" stroke-width="0.5"/>
<path d="M328 305.556H283.556V350H328V305.556Z" stroke="black" stroke-opacity="0.21" stroke-width="0.5"/>
<path d="M372.444 305.556H328V350H372.444V305.556Z" stroke="black" stroke-opacity="0.21" stroke-width="0.5"/>
<path d="M416.889 305.556H372.444V350H416.889V305.556Z" stroke="black" stroke-opacity="0.21" stroke-width="0.5"/>
<path d="M461.333 305.556H416.889V350H461.333V305.556Z" stroke="black" stroke-opacity="0.21" stroke-width="0.5"/>
<path d="M505.778 305.556H461.333V350H505.778V305.556Z" stroke="black" stroke-opacity="0.21" stroke-width="0.5"/>
<path d="M550.222 305.556H505.778V350H550.222V305.556Z" stroke="black" stroke-opacity="0.21" stroke-width="0.5"/>
<path d="M594.667 305.556H550.222V350H594.667V305.556Z" stroke="black" stroke-opacity="0.21" stroke-width="0.5"/>
<path d="M639.111 305.556H594.667V350H639.111V305.556Z" stroke="black" stroke-opacity="0.21" stroke-width="0.5"/>
<path d="M683.556 305.556H639.111V350H683.556V305.556Z" stroke="black" stroke-opacity="0.21" stroke-width="0.5"/>
<path d="M728 305.556H683.556V350H728V305.556Z" stroke="black" stroke-opacity="0.21" stroke-width="0.5"/>
<path d="M16.8888 350H-27.5557V394.444H16.8888V350Z" stroke="black" stroke-opacity="0.21" stroke-width="0.5"/>
<path d="M61.3334 350H16.8889V394.444H61.3334V350Z" stroke="black" stroke-opacity="0.21" stroke-width="0.5"/>
<path d="M105.778 350H61.3333V394.444H105.778V350Z" stroke="black" stroke-opacity="0.21" stroke-width="0.5"/>
<path d="M150.222 350H105.778V394.444H150.222V350Z" stroke="black" stroke-opacity="0.21" stroke-width="0.5"/>
<path d="M194.667 350H150.222V394.444H194.667V350Z" stroke="black" stroke-opacity="0.21" stroke-width="0.5"/>
<path d="M239.111 350H194.667V394.444H239.111V350Z" stroke="black" stroke-opacity="0.21" stroke-width="0.5"/>
<path d="M283.556 350H239.111V394.444H283.556V350Z" stroke="black" stroke-opacity="0.21" stroke-width="0.5"/>
<path d="M328 350H283.556V394.444H328V350Z" stroke="black" stroke-opacity="0.21" stroke-width="0.5"/>
<path d="M372.444 350H328V394.444H372.444V350Z" stroke="black" stroke-opacity="0.21" stroke-width="0.5"/>
<path d="M416.889 350H372.444V394.444H416.889V350Z" stroke="black" stroke-opacity="0.21" stroke-width="0.5"/>
<path d="M461.333 350H416.889V394.444H461.333V350Z" stroke="black" stroke-opacity="0.21" stroke-width="0.5"/>
<path d="M505.778 350H461.333V394.444H505.778V350Z" stroke="black" stroke-opacity="0.21" stroke-width="0.5"/>
<path d="M550.222 350H505.778V394.444H550.222V350Z" stroke="black" stroke-opacity="0.21" stroke-width="0.5"/>
<path d="M594.667 350H550.222V394.444H594.667V350Z" stroke="black" stroke-opacity="0.21" stroke-width="0.5"/>
<path d="M639.111 350H594.667V394.444H639.111V350Z" stroke="black" stroke-opacity="0.21" stroke-width="0.5"/>
<path d="M683.556 350H639.111V394.444H683.556V350Z" stroke="black" stroke-opacity="0.21" stroke-width="0.5"/>
<path d="M728 350H683.556V394.444H728V350Z" stroke="black" stroke-opacity="0.21" stroke-width="0.5"/>
<path d="M16.8888 394.444H-27.5557V438.889H16.8888V394.444Z" stroke="black" stroke-opacity="0.21" stroke-width="0.5"/>
<path d="M61.3334 394.444H16.8889V438.889H61.3334V394.444Z" stroke="black" stroke-opacity="0.21" stroke-width="0.5"/>
<path d="M105.778 394.444H61.3333V438.889H105.778V394.444Z" stroke="black" stroke-opacity="0.21" stroke-width="0.5"/>
<path d="M150.222 394.444H105.778V438.889H150.222V394.444Z" stroke="black" stroke-opacity="0.21" stroke-width="0.5"/>
<path d="M194.667 394.444H150.222V438.889H194.667V394.444Z" stroke="black" stroke-opacity="0.21" stroke-width="0.5"/>
<path d="M239.111 394.444H194.667V438.889H239.111V394.444Z" stroke="black" stroke-opacity="0.21" stroke-width="0.5"/>
<path d="M283.556 394.444H239.111V438.889H283.556V394.444Z" stroke="black" stroke-opacity="0.21" stroke-width="0.5"/>
<path d="M328 394.444H283.556V438.889H328V394.444Z" stroke="black" stroke-opacity="0.21" stroke-width="0.5"/>
<path d="M372.444 394.444H328V438.889H372.444V394.444Z" stroke="black" stroke-opacity="0.21" stroke-width="0.5"/>
<path d="M416.889 394.444H372.444V438.889H416.889V394.444Z" stroke="black" stroke-opacity="0.21" stroke-width="0.5"/>
<path d="M461.333 394.444H416.889V438.889H461.333V394.444Z" stroke="black" stroke-opacity="0.21" stroke-width="0.5"/>
<path d="M505.778 394.444H461.333V438.889H505.778V394.444Z" stroke="black" stroke-opacity="0.21" stroke-width="0.5"/>
<path d="M550.222 394.444H505.778V438.889H550.222V394.444Z" stroke="black" stroke-opacity="0.21" stroke-width="0.5"/>
<path d="M594.667 394.444H550.222V438.889H594.667V394.444Z" stroke="black" stroke-opacity="0.21" stroke-width="0.5"/>
<path d="M639.111 394.444H594.667V438.889H639.111V394.444Z" stroke="black" stroke-opacity="0.21" stroke-width="0.5"/>
<path d="M683.556 394.444H639.111V438.889H683.556V394.444Z" stroke="black" stroke-opacity="0.21" stroke-width="0.5"/>
<path d="M728 394.444H683.556V438.889H728V394.444Z" stroke="black" stroke-opacity="0.21" stroke-width="0.5"/>
<path d="M16.8888 438.889H-27.5557V483.333H16.8888V438.889Z" stroke="black" stroke-opacity="0.21" stroke-width="0.5"/>
<path d="M61.3334 438.889H16.8889V483.333H61.3334V438.889Z" stroke="black" stroke-opacity="0.21" stroke-width="0.5"/>
<path d="M105.778 438.889H61.3333V483.333H105.778V438.889Z" stroke="black" stroke-opacity="0.21" stroke-width="0.5"/>
<path d="M150.222 438.889H105.778V483.333H150.222V438.889Z" stroke="black" stroke-opacity="0.21" stroke-width="0.5"/>
<path d="M194.667 438.889H150.222V483.333H194.667V438.889Z" stroke="black" stroke-opacity="0.21" stroke-width="0.5"/>
<path d="M239.111 438.889H194.667V483.333H239.111V438.889Z" stroke="black" stroke-opacity="0.21" stroke-width="0.5"/>
<path d="M283.556 438.889H239.111V483.333H283.556V438.889Z" stroke="black" stroke-opacity="0.21" stroke-width="0.5"/>
<path d="M328 438.889H283.556V483.333H328V438.889Z" stroke="black" stroke-opacity="0.21" stroke-width="0.5"/>
<path d="M372.444 438.889H328V483.333H372.444V438.889Z" stroke="black" stroke-opacity="0.21" stroke-width="0.5"/>
<path d="M416.889 438.889H372.444V483.333H416.889V438.889Z" stroke="black" stroke-opacity="0.21" stroke-width="0.5"/>
<path d="M461.333 438.889H416.889V483.333H461.333V438.889Z" stroke="black" stroke-opacity="0.21" stroke-width="0.5"/>
<path d="M505.778 438.889H461.333V483.333H505.778V438.889Z" stroke="black" stroke-opacity="0.21" stroke-width="0.5"/>
<path d="M550.222 438.889H505.778V483.333H550.222V438.889Z" stroke="black" stroke-opacity="0.21" stroke-width="0.5"/>
<path d="M594.667 438.889H550.222V483.333H594.667V438.889Z" stroke="black" stroke-opacity="0.21" stroke-width="0.5"/>
<path d="M639.111 438.889H594.667V483.333H639.111V438.889Z" stroke="black" stroke-opacity="0.21" stroke-width="0.5"/>
<path d="M683.556 438.889H639.111V483.333H683.556V438.889Z" stroke="black" stroke-opacity="0.21" stroke-width="0.5"/>
<path d="M728 438.889H683.556V483.333H728V438.889Z" stroke="black" stroke-opacity="0.21" stroke-width="0.5"/>
<path d="M16.8888 483.333H-27.5557V527.778H16.8888V483.333Z" stroke="black" stroke-opacity="0.21" stroke-width="0.5"/>
<path d="M61.3334 483.333H16.8889V527.778H61.3334V483.333Z" stroke="black" stroke-opacity="0.21" stroke-width="0.5"/>
<path d="M105.778 483.333H61.3333V527.778H105.778V483.333Z" stroke="black" stroke-opacity="0.21" stroke-width="0.5"/>
<path d="M150.222 483.333H105.778V527.778H150.222V483.333Z" stroke="black" stroke-opacity="0.21" stroke-width="0.5"/>
<path d="M194.667 483.333H150.222V527.778H194.667V483.333Z" stroke="black" stroke-opacity="0.21" stroke-width="0.5"/>
<path d="M239.111 483.333H194.667V527.778H239.111V483.333Z" stroke="black" stroke-opacity="0.21" stroke-width="0.5"/>
<path d="M283.556 483.333H239.111V527.778H283.556V483.333Z" stroke="black" stroke-opacity="0.21" stroke-width="0.5"/>
<path d="M328 483.333H283.556V527.778H328V483.333Z" stroke="black" stroke-opacity="0.21" stroke-width="0.5"/>
<path d="M372.444 483.333H328V527.778H372.444V483.333Z" stroke="black" stroke-opacity="0.21" stroke-width="0.5"/>
<path d="M416.889 483.333H372.444V527.778H416.889V483.333Z" stroke="black" stroke-opacity="0.21" stroke-width="0.5"/>
<path d="M461.333 483.333H416.889V527.778H461.333V483.333Z" stroke="black" stroke-opacity="0.21" stroke-width="0.5"/>
<path d="M505.778 483.333H461.333V527.778H505.778V483.333Z" stroke="black" stroke-opacity="0.21" stroke-width="0.5"/>
<path d="M550.222 483.333H505.778V527.778H550.222V483.333Z" stroke="black" stroke-opacity="0.21" stroke-width="0.5"/>
<path d="M594.667 483.333H550.222V527.778H594.667V483.333Z" stroke="black" stroke-opacity="0.21" stroke-width="0.5"/>
<path d="M639.111 483.333H594.667V527.778H639.111V483.333Z" stroke="black" stroke-opacity="0.21" stroke-width="0.5"/>
<path d="M683.556 483.333H639.111V527.778H683.556V483.333Z" stroke="black" stroke-opacity="0.21" stroke-width="0.5"/>
<path d="M728 483.333H683.556V527.778H728V483.333Z" stroke="black" stroke-opacity="0.21" stroke-width="0.5"/>
<path d="M16.8888 527.778H-27.5557V572.222H16.8888V527.778Z" stroke="black" stroke-opacity="0.21" stroke-width="0.5"/>
<path d="M61.3334 527.778H16.8889V572.222H61.3334V527.778Z" stroke="black" stroke-opacity="0.21" stroke-width="0.5"/>
<path d="M105.778 527.778H61.3333V572.222H105.778V527.778Z" stroke="black" stroke-opacity="0.21" stroke-width="0.5"/>
<path d="M150.222 527.778H105.778V572.222H150.222V527.778Z" stroke="black" stroke-opacity="0.21" stroke-width="0.5"/>
<path d="M194.667 527.778H150.222V572.222H194.667V527.778Z" stroke="black" stroke-opacity="0.21" stroke-width="0.5"/>
<path d="M239.111 527.778H194.667V572.222H239.111V527.778Z" stroke="black" stroke-opacity="0.21" stroke-width="0.5"/>
<path d="M283.556 527.778H239.111V572.222H283.556V527.778Z" stroke="black" stroke-opacity="0.21" stroke-width="0.5"/>
<path d="M328 527.778H283.556V572.222H328V527.778Z" stroke="black" stroke-opacity="0.21" stroke-width="0.5"/>
<path d="M372.444 527.778H328V572.222H372.444V527.778Z" stroke="black" stroke-opacity="0.21" stroke-width="0.5"/>
<path d="M416.889 527.778H372.444V572.222H416.889V527.778Z" stroke="black" stroke-opacity="0.21" stroke-width="0.5"/>
<path d="M461.333 527.778H416.889V572.222H461.333V527.778Z" stroke="black" stroke-opacity="0.21" stroke-width="0.5"/>
<path d="M505.778 527.778H461.333V572.222H505.778V527.778Z" stroke="black" stroke-opacity="0.21" stroke-width="0.5"/>
<path d="M550.222 527.778H505.778V572.222H550.222V527.778Z" stroke="black" stroke-opacity="0.21" stroke-width="0.5"/>
<path d="M594.667 527.778H550.222V572.222H594.667V527.778Z" stroke="black" stroke-opacity="0.21" stroke-width="0.5"/>
<path d="M639.111 527.778H594.667V572.222H639.111V527.778Z" stroke="black" stroke-opacity="0.21" stroke-width="0.5"/>
<path d="M683.556 527.778H639.111V572.222H683.556V527.778Z" stroke="black" stroke-opacity="0.21" stroke-width="0.5"/>
<path d="M728 527.778H683.556V572.222H728V527.778Z" stroke="black" stroke-opacity="0.21" stroke-width="0.5"/>
<path d="M16.8888 572.222H-27.5557V616.667H16.8888V572.222Z" stroke="black" stroke-opacity="0.21" stroke-width="0.5"/>
<path d="M61.3334 572.222H16.8889V616.667H61.3334V572.222Z" stroke="black" stroke-opacity="0.21" stroke-width="0.5"/>
<path d="M105.778 572.222H61.3333V616.667H105.778V572.222Z" stroke="black" stroke-opacity="0.21" stroke-width="0.5"/>
<path d="M150.222 572.222H105.778V616.667H150.222V572.222Z" stroke="black" stroke-opacity="0.21" stroke-width="0.5"/>
<path d="M194.667 572.222H150.222V616.667H194.667V572.222Z" stroke="black" stroke-opacity="0.21" stroke-width="0.5"/>
<path d="M239.111 572.222H194.667V616.667H239.111V572.222Z" stroke="black" stroke-opacity="0.21" stroke-width="0.5"/>
<path d="M283.556 572.222H239.111V616.667H283.556V572.222Z" stroke="black" stroke-opacity="0.21" stroke-width="0.5"/>
<path d="M328 572.222H283.556V616.667H328V572.222Z" stroke="black" stroke-opacity="0.21" stroke-width="0.5"/>
<path d="M372.444 572.222H328V616.667H372.444V572.222Z" stroke="black" stroke-opacity="0.21" stroke-width="0.5"/>
<path d="M416.889 572.222H372.444V616.667H416.889V572.222Z" stroke="black" stroke-opacity="0.21" stroke-width="0.5"/>
<path d="M461.333 572.222H416.889V616.667H461.333V572.222Z" stroke="black" stroke-opacity="0.21" stroke-width="0.5"/>
<path d="M505.778 572.222H461.333V616.667H505.778V572.222Z" stroke="black" stroke-opacity="0.21" stroke-width="0.5"/>
<path d="M550.222 572.222H505.778V616.667H550.222V572.222Z" stroke="black" stroke-opacity="0.21" stroke-width="0.5"/>
<path d="M594.667 572.222H550.222V616.667H594.667V572.222Z" stroke="black" stroke-opacity="0.21" stroke-width="0.5"/>
<path d="M639.111 572.222H594.667V616.667H639.111V572.222Z" stroke="black" stroke-opacity="0.21" stroke-width="0.5"/>
<path d="M683.556 572.222H639.111V616.667H683.556V572.222Z" stroke="black" stroke-opacity="0.21" stroke-width="0.5"/>
<path d="M728 572.222H683.556V616.667H728V572.222Z" stroke="black" stroke-opacity="0.21" stroke-width="0.5"/>
<path d="M16.8888 616.667H-27.5557V661.111H16.8888V616.667Z" stroke="black" stroke-opacity="0.21" stroke-width="0.5"/>
<path d="M61.3334 616.667H16.8889V661.111H61.3334V616.667Z" stroke="black" stroke-opacity="0.21" stroke-width="0.5"/>
<path d="M105.778 616.667H61.3333V661.111H105.778V616.667Z" stroke="black" stroke-opacity="0.21" stroke-width="0.5"/>
<path d="M150.222 616.667H105.778V661.111H150.222V616.667Z" stroke="black" stroke-opacity="0.21" stroke-width="0.5"/>
<path d="M194.667 616.667H150.222V661.111H194.667V616.667Z" stroke="black" stroke-opacity="0.21" stroke-width="0.5"/>
<path d="M239.111 616.667H194.667V661.111H239.111V616.667Z" stroke="black" stroke-opacity="0.21" stroke-width="0.5"/>
<path d="M283.556 616.667H239.111V661.111H283.556V616.667Z" stroke="black" stroke-opacity="0.21" stroke-width="0.5"/>
<path d="M328 616.667H283.556V661.111H328V616.667Z" stroke="black" stroke-opacity="0.21" stroke-width="0.5"/>
<path d="M372.444 616.667H328V661.111H372.444V616.667Z" stroke="black" stroke-opacity="0.21" stroke-width="0.5"/>
<path d="M416.889 616.667H372.444V661.111H416.889V616.667Z" stroke="black" stroke-opacity="0.21" stroke-width="0.5"/>
<path d="M461.333 616.667H416.889V661.111H461.333V616.667Z" stroke="black" stroke-opacity="0.21" stroke-width="0.5"/>
<path d="M505.778 616.667H461.333V661.111H505.778V616.667Z" stroke="black" stroke-opacity="0.21" stroke-width="0.5"/>
<path d="M550.222 616.667H505.778V661.111H550.222V616.667Z" stroke="black" stroke-opacity="0.21" stroke-width="0.5"/>
<path d="M594.667 616.667H550.222V661.111H594.667V616.667Z" stroke="black" stroke-opacity="0.21" stroke-width="0.5"/>
<path d="M639.111 616.667H594.667V661.111H639.111V616.667Z" stroke="black" stroke-opacity="0.21" stroke-width="0.5"/>
<path d="M683.556 616.667H639.111V661.111H683.556V616.667Z" stroke="black" stroke-opacity="0.21" stroke-width="0.5"/>
<path d="M728 616.667H683.556V661.111H728V616.667Z" stroke="black" stroke-opacity="0.21" stroke-width="0.5"/>
<path d="M16.8888 661.111H-27.5557V705.556H16.8888V661.111Z" stroke="black" stroke-opacity="0.21" stroke-width="0.5"/>
<path d="M61.3334 661.111H16.8889V705.556H61.3334V661.111Z" stroke="black" stroke-opacity="0.21" stroke-width="0.5"/>
<path d="M105.778 661.111H61.3333V705.556H105.778V661.111Z" stroke="black" stroke-opacity="0.21" stroke-width="0.5"/>
<path d="M150.222 661.111H105.778V705.556H150.222V661.111Z" stroke="black" stroke-opacity="0.21" stroke-width="0.5"/>
<path d="M194.667 661.111H150.222V705.556H194.667V661.111Z" stroke="black" stroke-opacity="0.21" stroke-width="0.5"/>
<path d="M239.111 661.111H194.667V705.556H239.111V661.111Z" stroke="black" stroke-opacity="0.21" stroke-width="0.5"/>
<path d="M283.556 661.111H239.111V705.556H283.556V661.111Z" stroke="black" stroke-opacity="0.21" stroke-width="0.5"/>
<path d="M328 661.111H283.556V705.556H328V661.111Z" stroke="black" stroke-opacity="0.21" stroke-width="0.5"/>
<path d="M372.444 661.111H328V705.556H372.444V661.111Z" stroke="black" stroke-opacity="0.21" stroke-width="0.5"/>
<path d="M416.889 661.111H372.444V705.556H416.889V661.111Z" stroke="black" stroke-opacity="0.21" stroke-width="0.5"/>
<path d="M461.333 661.111H416.889V705.556H461.333V661.111Z" stroke="black" stroke-opacity="0.21" stroke-width="0.5"/>
<path d="M505.778 661.111H461.333V705.556H505.778V661.111Z" stroke="black" stroke-opacity="0.21" stroke-width="0.5"/>
<path d="M550.222 661.111H505.778V705.556H550.222V661.111Z" stroke="black" stroke-opacity="0.21" stroke-width="0.5"/>
<path d="M594.667 661.111H550.222V705.556H594.667V661.111Z" stroke="black" stroke-opacity="0.21" stroke-width="0.5"/>
<path d="M639.111 661.111H594.667V705.556H639.111V661.111Z" stroke="black" stroke-opacity="0.21" stroke-width="0.5"/>
<path d="M683.556 661.111H639.111V705.556H683.556V661.111Z" stroke="black" stroke-opacity="0.21" stroke-width="0.5"/>
<path d="M728 661.111H683.556V705.556H728V661.111Z" stroke="black" stroke-opacity="0.21" stroke-width="0.5"/>
</g>
</g>
<defs>
<filter id="filter0_f_81_367" x="-102" y="-102" width="904" height="904" filterUnits="userSpaceOnUse" color-interpolation-filters="sRGB">
<feFlood flood-opacity="0" result="BackgroundImageFix"/>
<feBlend mode="normal" in="SourceGraphic" in2="BackgroundImageFix" result="shape"/>
<feGaussianBlur stdDeviation="51" result="effect1_foregroundBlur_81_367"/>
</filter>
<linearGradient id="paint0_linear_81_367" x1="-30309.7" y1="17500.7" x2="-65309.7" y2="-43121.1" gradientUnits="userSpaceOnUse">
<stop stop-color="#FDE047"/>
<stop offset="1" stop-color="#FDE047"/>
</linearGradient>
<clipPath id="clip0_81_367">
<rect width="700" height="700" fill="white"/>
</clipPath>
<clipPath id="clip1_81_367">
<rect width="800" height="800" fill="white" transform="translate(-72 -50)"/>
</clipPath>
</defs>
</svg>
